# File exported by Houdini 15.5.565 (www.sidefx.com)
# 7 points
# 15 vertices
# 5 primitives
# Bounds: [-0.110553175, -0.119321264, 0] to [0.110553175, 0.119321264, 0]
g 
v 0.110553175 0.0158993341 0
v 0.0773476809 0.119321264 0
v -0.010365285 0.0436789356 0
v -0.110553175 0.0500714183 0
v -0.039838016 -0.0023335591 0
v -0.00131060556 -0.0720004812 0
v 0.0797150508 -0.119321264 0
vn 0 0 -1
vn 0 0 -1
vn 0 0 -1
vn 0 0 -1
vn 0 0 -1
vn 0 0 -1
vn 0 0 -1
vn 0 0 -1
vn 0 0 -1
vn 0 0 -1
vn 0 0 -1
vn 0 0 -1
vn 0 0 -1
vn 0 0 -1
vn 0 0 -1
g Shard
f 3//1 5//2 4//3
f 1//4 3//5 2//6
f 1//7 7//8 6//9
f 1//10 6//11 3//12
f 3//13 6//14 5//15
