# File exported by Houdini 15.5.565 (www.sidefx.com)
# 7 points
# 15 vertices
# 5 primitives
# Bounds: [-0.118040413, -0.103997983, 0] to [0.118040413, 0.103997983, 0]
g 
v 0.118040413 0.0240905955 0
v 0.064173162 0.103997983 0
v -0.0234189332 0.0901998505 0
v -0.0898569599 0.00701300427 0
v -0.118040413 -0.0829537883 0
v 0.0141820628 -0.0436002947 0
v 0.101352938 -0.103997983 0
vn 0 0 -1
vn 0 0 -1
vn 0 0 -1
vn 0 0 -1
vn 0 0 -1
vn 0 0 -1
vn 0 0 -1
vn 0 0 -1
vn 0 0 -1
vn 0 0 -1
vn 0 0 -1
vn 0 0 -1
vn 0 0 -1
vn 0 0 -1
vn 0 0 -1
g Shard
f 4//1 6//2 5//3
f 1//4 6//5 2//6
f 1//7 7//8 6//9
f 2//10 6//11 3//12
f 3//13 6//14 4//15
