# File exported by Houdini 15.5.565 (www.sidefx.com)
# 7 points
# 15 vertices
# 5 primitives
# Bounds: [-0.114529751, -0.101161867, 0] to [0.114529751, 0.101161867, 0]
g 
v 0.114529751 0.0678355843 0
v 0.0682588518 0.0672609806 0
v 0.029435752 0.101161867 0
v -0.0736627653 0.0250027515 0
v -0.114529751 -0.0678603202 0
v 0.00905395299 -0.101161867 0
v 0.0525014512 -0.0287908576 0
vn 0 0 -1
vn 0 0 -1
vn 0 0 -1
vn 0 0 -0.99999994
vn 0 0 -1
vn 0 0 -1
vn 0 0 -1
vn 0 0 -1
vn 0 0 -1
vn 0 0 -1
vn 0 0 -1
vn 0 0 -1
vn 0 0 -1
vn 0 0 -1
vn 0 0 -1
g Shard
f 4//1 6//2 5//3
f 1//4 7//5 2//6
f 2//7 4//8 3//9
f 2//10 7//11 4//12
f 7//13 6//14 4//15
