# File exported by Houdini 15.5.565 (www.sidefx.com)
# 7 points
# 15 vertices
# 5 primitives
# Bounds: [-0.119700201, -0.120149896, 0] to [0.119700201, 0.120149896, 0]
g 
v 0.11035762 0.00692747533 0
v 0.0261492468 0.0977597088 0
v -0.00827005133 0.120149896 0
v -0.119700201 0.00404086336 0
v -0.0458651036 -0.0245335214 0
v 0.0118560456 -0.0989518315 0
v 0.119700201 -0.120149896 0
vn 0 0 -1
vn 0 0 -1
vn 0 0 -1
vn 0 0 -1
vn 0 0 -1
vn 0 0 -1
vn 0 0 -1
vn 0 0 -1
vn 0 0 -1
vn 0 0 -1
vn 0 0 -1
vn 0 0 -1
vn 0 0 -1
vn 0 0 -1
vn 0 0 -1
g Shard
f 3//1 5//2 4//3
f 1//4 5//5 2//6
f 1//7 7//8 6//9
f 2//10 5//11 3//12
f 1//13 6//14 5//15
