# File exported by Houdini 15.5.565 (www.sidefx.com)
# 8 points
# 8 vertices
# 2 primitives
# Bounds: [-0.5, -6.12323426e-17, -0.5] to [0.5, 6.12323426e-17, 0.5]
g 
v -0.5 0 -0.5
v 0.5 0 -0.5
v -0.5 0 0.5
v 0.5 0 0.5
v -0.5 6.12323426e-17 0.5
v 0.5 6.12323426e-17 0.5
v -0.5 -6.12323426e-17 -0.5
v 0.5 -6.12323426e-17 -0.5
vt 0 0 0.5
vt 0 1 0.5
vt 1 1 0.5
vt 1 0 0.5
vt 0 1 1
vt 0 0 0
vt 1 0 0
vt 1 1 1
vn 0 1 0
vn 0 1 0
vn 0 1 0
vn 0 1 0
vn 0 -1 1.22464685e-16
vn 0 -1 1.22464685e-16
vn 0 -1 1.22464685e-16
vn 0 -1 1.22464685e-16
g quad
f 1/1/1 3/2/2 4/3/3 2/4/4
f 5/5/5 7/6/6 8/7/7 6/8/8
